<svg width="1600" height="436" viewBox="0 0 1600 436" fill="none" xmlns="http://www.w3.org/2000/svg">
<g id="Frame 1">
<g id="MG Arts">
<path d="M57.0199 79.6364H129.08L205.188 265.318H208.426L284.534 79.6364H356.594V356H299.918V176.121H297.624L226.104 354.651H187.51L115.99 175.446H113.696V356H57.0199V79.6364Z" fill="white"/>
<path d="M587.988 168.969C586.098 162.402 583.444 156.599 580.026 151.561C576.607 146.433 572.424 142.115 567.476 138.607C562.618 135.008 557.041 132.264 550.743 130.375C544.536 128.486 537.654 127.541 530.097 127.541C515.973 127.541 503.558 131.05 492.853 138.067C482.237 145.084 473.961 155.294 468.023 168.699C462.086 182.013 459.117 198.296 459.117 217.548C459.117 236.8 462.041 253.173 467.888 266.668C473.736 280.162 482.012 290.463 492.718 297.57C503.423 304.587 516.063 308.095 530.637 308.095C543.861 308.095 555.151 305.756 564.507 301.078C573.954 296.31 581.15 289.608 586.098 280.972C591.136 272.335 593.655 262.125 593.655 250.339L605.53 252.094H534.28V208.102H649.927V242.918C649.927 267.207 644.799 288.079 634.543 305.531C624.287 322.894 610.163 336.298 592.171 345.744C574.178 355.1 553.577 359.778 530.367 359.778C504.458 359.778 481.697 354.066 462.086 342.641C442.474 331.125 427.18 314.797 416.205 293.656C405.32 272.425 399.877 247.236 399.877 218.088C399.877 195.687 403.115 175.716 409.593 158.173C416.16 140.541 425.336 125.607 437.121 113.372C448.906 101.137 462.625 91.8262 478.279 85.4389C493.932 79.0516 510.89 75.8579 529.152 75.8579C544.806 75.8579 559.38 78.152 572.874 82.74C586.368 87.2382 598.333 93.6255 608.769 101.902C619.294 110.178 627.886 120.029 634.543 131.455C641.2 142.79 645.473 155.294 647.363 168.969H587.988Z" fill="white"/>
<path d="M829.401 356H766.787L862.192 79.6364H937.49L1032.76 356H970.147L900.921 142.79H898.762L829.401 356ZM825.488 247.371H973.385V292.982H825.488V247.371Z" fill="white"/>
<path d="M1064.94 356V148.727H1120.68V184.892H1122.83C1126.61 172.027 1132.96 162.312 1141.86 155.744C1150.77 149.087 1161.02 145.759 1172.63 145.759C1175.51 145.759 1178.61 145.938 1181.94 146.298C1185.27 146.658 1188.19 147.153 1190.71 147.783V198.791C1188.01 197.982 1184.28 197.262 1179.51 196.632C1174.74 196.002 1170.38 195.688 1166.42 195.688C1157.97 195.688 1150.41 197.532 1143.75 201.22C1137.18 204.819 1131.97 209.857 1128.1 216.334C1124.32 222.811 1122.43 230.278 1122.43 238.734V356H1064.94Z" fill="white"/>
<path d="M1341.07 148.727V191.909H1216.25V148.727H1341.07ZM1244.59 99.0682H1302.07V292.307C1302.07 297.615 1302.88 301.753 1304.5 304.722C1306.12 307.6 1308.37 309.625 1311.25 310.794C1314.22 311.964 1317.64 312.548 1321.51 312.548C1324.2 312.548 1326.9 312.323 1329.6 311.874C1332.3 311.334 1334.37 310.929 1335.81 310.659L1344.85 353.436C1341.97 354.336 1337.92 355.37 1332.71 356.54C1327.49 357.799 1321.15 358.564 1313.68 358.834C1299.82 359.374 1287.68 357.529 1277.24 353.301C1266.9 349.073 1258.85 342.506 1253.09 333.599C1247.33 324.693 1244.5 313.448 1244.59 299.864V99.0682Z" fill="white"/>
<path d="M1548.38 207.832L1495.75 211.071C1494.85 206.573 1492.92 202.525 1489.95 198.926C1486.98 195.238 1483.07 192.314 1478.21 190.155C1473.44 187.906 1467.73 186.781 1461.07 186.781C1452.16 186.781 1444.65 188.67 1438.53 192.449C1432.42 196.137 1429.36 201.085 1429.36 207.293C1429.36 212.241 1431.34 216.424 1435.3 219.842C1439.25 223.261 1446.05 226.005 1455.67 228.074L1493.19 235.631C1513.34 239.769 1528.36 246.426 1538.26 255.602C1548.15 264.778 1553.1 276.833 1553.1 291.767C1553.1 305.351 1549.1 317.271 1541.09 327.527C1533.17 337.783 1522.29 345.789 1508.44 351.547C1494.67 357.214 1478.79 360.048 1460.8 360.048C1433.36 360.048 1411.5 354.336 1395.22 342.911C1379.02 331.395 1369.53 315.742 1366.74 295.95L1423.29 292.982C1425 301.348 1429.13 307.735 1435.7 312.143C1442.27 316.462 1450.68 318.621 1460.94 318.621C1471.01 318.621 1479.11 316.687 1485.22 312.818C1491.43 308.86 1494.58 303.777 1494.67 297.57C1494.58 292.352 1492.38 288.079 1488.06 284.75C1483.74 281.331 1477.08 278.723 1468.09 276.923L1432.19 269.771C1411.95 265.723 1396.88 258.706 1386.99 248.72C1377.18 238.734 1372.28 226.005 1372.28 210.531C1372.28 197.217 1375.88 185.747 1383.07 176.121C1390.36 166.495 1400.57 159.073 1413.7 153.855C1426.93 148.637 1442.4 146.028 1460.13 146.028C1486.3 146.028 1506.91 151.561 1521.93 162.626C1537.04 173.692 1545.86 188.76 1548.38 207.832Z" fill="white"/>
</g>
</g>
</svg>
